<?xml version="1.0" encoding="iso-8859-1"?>
<!-- Generator: Adobe Illustrator 19.0.0, SVG Export Plug-In . SVG Version: 6.00 Build 0)  -->
<svg version="1.1" id="Capa_1" xmlns="http://www.w3.org/2000/svg" xmlns:xlink="http://www.w3.org/1999/xlink" x="0px" y="0px"
	 viewBox="0 0 512 512" style="enable-background:new 0 0 512 512;" xml:space="preserve">
<path style="fill:#EAEFF0;" d="M373.197,503.467H138.803c-15.394,0-27.87-12.476-27.87-27.87V435.2h290.133v40.397
	C401.067,490.991,388.591,503.467,373.197,503.467z"/>
<rect x="110.933" y="76.8" style="fill:#2F4156;" width="290.133" height="358.4"/>
<rect x="145.067" y="110.933" style="fill:#EDC217;" width="136.533" height="51.2"/>
<rect x="315.733" y="110.933" style="fill:#EF961B;" width="51.2" height="51.2"/>
<rect x="145.067" y="290.133" style="fill:#F8706E;" width="136.533" height="51.2"/>
<rect x="315.733" y="290.133" style="fill:#E13F34;" width="51.2" height="51.2"/>
<rect x="145.067" y="384" style="fill:#CE322E;" width="136.533" height="51.2"/>
<rect x="315.733" y="384" style="fill:#AF2323;" width="51.2" height="51.2"/>
<rect x="145.067" y="204.8" style="fill:#E17620;" width="136.533" height="51.2"/>
<rect x="315.733" y="204.8" style="fill:#CC4B22;" width="51.2" height="51.2"/>
<g>
	<path style="fill:#B8BEC3;" d="M281.6,477.867h-51.2c-4.71,0-8.533-3.823-8.533-8.533c0-4.71,3.823-8.533,8.533-8.533h51.2
		c4.71,0,8.533,3.823,8.533,8.533C290.133,474.044,286.31,477.867,281.6,477.867z"/>
	<path style="fill:#B8BEC3;" d="M358.4,477.867h-34.133c-4.71,0-8.533-3.823-8.533-8.533c0-4.71,3.823-8.533,8.533-8.533H358.4
		c4.71,0,8.533,3.823,8.533,8.533C366.933,474.044,363.11,477.867,358.4,477.867z"/>
	<path style="fill:#B8BEC3;" d="M187.733,477.867H153.6c-4.71,0-8.533-3.823-8.533-8.533c0-4.71,3.823-8.533,8.533-8.533h34.133
		c4.71,0,8.533,3.823,8.533,8.533C196.267,474.044,192.444,477.867,187.733,477.867z"/>
</g>
<path style="fill:#EAEFF0;" d="M138.803,8.533h234.402c15.386,0,27.861,12.476,27.861,27.87V76.8H110.933V36.403
	C110.933,21.009,123.409,8.533,138.803,8.533z"/>
<path style="fill:#B8BEC3;" d="M298.667,51.2h-85.333c-4.71,0-8.533-3.823-8.533-8.533s3.823-8.533,8.533-8.533h85.333
	c4.71,0,8.533,3.823,8.533,8.533S303.377,51.2,298.667,51.2z"/>
<g>
	<path style="fill:#556080;" d="M443.682,324.454c-0.794,0-1.596-0.111-2.398-0.35c-4.523-1.323-7.117-6.059-5.803-10.581
		c5.436-18.603,8.192-37.956,8.192-57.532c0-19.507-2.739-38.801-8.132-57.344c-1.314-4.523,1.28-9.259,5.811-10.573
		c4.531-1.314,9.259,1.28,10.581,5.811c5.845,20.096,8.815,40.994,8.815,62.114c0,21.188-2.987,42.155-8.875,62.31
		C450.782,322.039,447.377,324.454,443.682,324.454z"/>
	<path style="fill:#556080;" d="M68.318,324.454c-3.695,0-7.1-2.423-8.183-6.144c-5.888-20.156-8.875-41.122-8.875-62.31
		c0-21.12,2.97-42.018,8.815-62.114c1.314-4.531,6.042-7.142,10.581-5.811c4.523,1.314,7.125,6.05,5.811,10.573
		c-5.402,18.551-8.141,37.845-8.141,57.353c0,19.567,2.756,38.929,8.192,57.532c1.323,4.523-1.271,9.259-5.803,10.581
		C69.914,324.343,69.111,324.454,68.318,324.454z"/>
	<path style="fill:#556080;" d="M25.6,358.4c-3.26,0-6.374-1.886-7.799-5.052C6.323,327.646,0,293.077,0,256
		s6.323-71.646,17.809-97.348c1.929-4.292,6.98-6.221,11.273-4.309c4.301,1.929,6.229,6.972,4.309,11.273
		C22.861,189.167,17.067,221.269,17.067,256s5.794,66.833,16.324,90.385c1.92,4.301-0.009,9.353-4.309,11.273
		C27.947,358.161,26.769,358.4,25.6,358.4z"/>
	<path style="fill:#556080;" d="M486.4,358.4c-1.161,0-2.347-0.239-3.473-0.742c-4.301-1.929-6.229-6.972-4.309-11.273
		c10.522-23.552,16.316-55.654,16.316-90.385s-5.794-66.833-16.324-90.385c-1.92-4.301,0.009-9.353,4.309-11.273
		c4.301-1.911,9.353,0.009,11.273,4.309C505.677,184.354,512,218.923,512,256c0,37.077-6.323,71.646-17.809,97.348
		C492.774,356.523,489.66,358.4,486.4,358.4z"/>
</g>
<g>
</g>
<g>
</g>
<g>
</g>
<g>
</g>
<g>
</g>
<g>
</g>
<g>
</g>
<g>
</g>
<g>
</g>
<g>
</g>
<g>
</g>
<g>
</g>
<g>
</g>
<g>
</g>
<g>
</g>
</svg>
